<svg width="15" height="29" viewBox="0 0 15 29" xmlns="http://www.w3.org/2000/svg">
  <path fill-rule="evenodd" clip-rule="evenodd" d="M5.95934 2.36453C7.14824 0.990575 8.77928 0.199951 10.5 0.199951H14C14.3038 0.199951 14.55 0.446195 14.55 0.749951V6.14297C14.55 6.44672 14.3038 6.69297 14 6.69297H10.5C10.3643 6.69297 10.2148 6.75463 10.091 6.89775C9.96497 7.04337 9.88337 7.25588 9.88337 7.49122V10.986H14C14.1663 10.986 14.3237 11.0612 14.4281 11.1906C14.5325 11.32 14.5728 11.4897 14.5376 11.6523L13.3709 17.0453C13.3162 17.2984 13.0923 17.479 12.8334 17.479H9.88337V27.715C9.88337 28.0188 9.63712 28.265 9.33337 28.265H4.6667C4.36294 28.265 4.1167 28.0188 4.1167 27.715V17.479H1.1667C0.862943 17.479 0.616699 17.2328 0.616699 16.929V11.536C0.616699 11.2322 0.862943 10.986 1.1667 10.986H4.1167V7.49122C4.1167 5.58109 4.77259 3.73599 5.95934 2.36453ZM10.5 1.29995C9.1266 1.29995 7.79017 1.92981 6.79115 3.08431C5.78997 4.24132 5.2167 5.82556 5.2167 7.49122V11.536C5.2167 11.8397 4.97046 12.086 4.6667 12.086H1.7167V16.379H4.6667C4.97046 16.379 5.2167 16.6252 5.2167 16.929V27.165H8.78337V16.929C8.78337 16.6252 9.02961 16.379 9.33337 16.379H12.3896L13.3183 12.086H9.33337C9.02961 12.086 8.78337 11.8397 8.78337 11.536V7.49122C8.78337 7.01141 8.94759 6.53804 9.25917 6.17797C9.57291 5.8154 10.017 5.59297 10.5 5.59297H13.45V1.29995H10.5Z" />
</svg>
