<svg width="21" height="21" viewBox="0 0 21 21" fill="none" xmlns="http://www.w3.org/2000/svg">
<path d="M18.9001 10.4H10.4001V11.6H18.9001L16.8001 13.7L17.7001 14.6L20.8001 11.5C20.8974 11.3702 20.9501 11.2123 20.9501 11.05C20.9501 10.8877 20.8974 10.7298 20.8001 10.6L17.7001 7.50001L16.8001 8.40001L18.9001 10.4Z" fill="black"/>
<path d="M9.10008 20.4V14.2C9.08853 14.0447 9.0216 13.8987 8.91149 13.7886C8.80137 13.6785 8.65538 13.6116 8.50008 13.6H4.10008C4.10523 13.9167 4.23331 14.2189 4.45724 14.4428C4.68118 14.6668 4.98342 14.7949 5.30008 14.8H7.80008V19.8H4.10008C3.86332 19.8149 3.62597 19.7825 3.40182 19.7048C3.17768 19.6271 2.97121 19.5057 2.79442 19.3475C2.61763 19.1893 2.47405 18.9976 2.37202 18.7834C2.26998 18.5693 2.21154 18.337 2.20008 18.1V4.10001C2.19187 3.6373 2.36522 3.18977 2.68298 2.85331C3.00075 2.51686 3.43765 2.31824 3.90008 2.30001H7.80008V7.30001H5.40008C5.08342 7.30516 4.78118 7.43324 4.55724 7.65718C4.33331 7.88112 4.20523 8.18336 4.20008 8.50001H8.60008C8.75538 8.48846 8.90137 8.42154 9.01149 8.31142C9.1216 8.2013 9.18853 8.05531 9.20008 7.90001V1.60001C9.15238 1.44387 9.06123 1.30453 8.93727 1.19828C8.81331 1.09204 8.66167 1.02326 8.50008 1.00001H4.10008C3.70606 0.986659 3.31327 1.0511 2.94417 1.18965C2.57507 1.3282 2.2369 1.53814 1.94899 1.80748C1.66109 2.07681 1.42909 2.40025 1.26627 2.7593C1.10345 3.11835 1.01299 3.50598 1.00008 3.90001V17.8C0.971097 18.1977 1.02471 18.597 1.15755 18.9729C1.29038 19.3489 1.49957 19.6932 1.77195 19.9844C2.04432 20.2756 2.374 20.5072 2.74025 20.6648C3.10649 20.8224 3.50138 20.9024 3.90008 20.9H8.50008C8.57356 20.915 8.64949 20.9133 8.72223 20.895C8.79496 20.8767 8.86265 20.8423 8.92027 20.7942C8.97789 20.7462 9.02397 20.6859 9.0551 20.6176C9.08622 20.5494 9.10159 20.475 9.10008 20.4Z" fill="black"/>
</svg>
